<svg xmlns="http://www.w3.org/2000/svg" xmlns:xlink="http://www.w3.org/1999/xlink" width="31" height="14" viewBox="0 0 31 14"><defs><path id="iifca" d="M427.26 321a5 5 0 1 0-.26-10h-4a5 5 0 0 0 0 10h.08a6.06 6.06 0 0 1 0-2H423a3 3 0 1 1 0-6h4a3 3 0 0 1 .27 6 2 2 0 0 0-.01 2zm-3.39-.87A5 5 0 0 0 429 325h4a5 5 0 1 0 0-10h-.08c.11.66.11 1.34 0 2h.08a3 3 0 0 1 0 6h-4a3 3 0 0 1-.27-5.99 2 2 0 0 0 .01-2 5 5 0 0 0-4.87 5.12z"/><path id="iifcb" d="M448.5 322.5v-9.06"/></defs><g><g transform="translate(-418 -311)"><use fill="#b0b0b7" xlink:href="#iifca"/></g><g transform="translate(-418 -311)"><use fill="#fff" fill-opacity="0" stroke="#e0e0e0" stroke-linecap="square" stroke-miterlimit="50" xlink:href="#iifcb"/></g></g></svg>